<svg xmlns="http://www.w3.org/2000/svg" viewBox="0 0 940.9468 74.5615"><defs><style>.cls-1{fill:#661616;}</style></defs><g id="Layer_2" data-name="Layer 2"><g id="Layer_1-2" data-name="Layer 1"><path class="cls-1" d="M11.68,14.4385V37.64H32.001v1.68H11.68V65.56H36.0811v1.68H9.84v-54.48H35.521l-.24,1.68Z" transform="translate(-9.8403 -8.3584)"/><path class="cls-1" d="M79.28,37.72v29.52H77.52v-29.36c0-7.5205-3.04-11.36-9.36-11.36-6.72,0-11.28,4-15.2,10V67.2393H51.2v-41.52h1.52l.16,8.48c3.76-5.6006,8.72-9.28,15.28-9.28C75.76,24.9189,79.28,29.56,79.28,37.72Z" transform="translate(-9.8403 -8.3584)"/><path class="cls-1" d="M92.7188,82.8408l-.48-1.3613c5.44-2.8789,7.76-5.3594,7.76-14.8V25.7188h1.76V66.76C101.7588,77,98.8789,79.64,92.7188,82.8408Zm9.76-71.9219a1.5169,1.5169,0,0,1-1.68,1.52,1.539,1.539,0,0,1-1.6-1.52,1.6035,1.6035,0,0,1,1.6-1.6005A1.5745,1.5745,0,0,1,102.479,10.9189Z" transform="translate(-9.8403 -8.3584)"/><path class="cls-1" d="M152.3994,46.2793c0,13.8408-6.56,21.7607-16.6406,21.7607-10.32,0-16.56-8.08-16.56-21.5214,0-13.76,6.64-21.6,16.64-21.6C145.999,24.9189,152.3994,32.5186,152.3994,46.2793Zm-31.3608.2393c0,12.56,5.52,19.8418,14.72,19.8418,9.04,0,14.8-7.1211,14.8-20.0811,0-12.72-5.52-19.7607-14.72-19.7607C126.8789,26.5186,121.0386,33.48,121.0386,46.5186Z" transform="translate(-9.8403 -8.3584)"/><path class="cls-1" d="M164.3188,82.8408l-.24-1.4414c8.24-2.48,10.0005-5.92,13.0405-14.16h-.72l-14.96-41.52h1.92l14.24,40.2412,13.68-40.2412h2L178.7988,67.3193C175.5991,76.5205,173.1191,80.28,164.3188,82.8408Z" transform="translate(-9.8403 -8.3584)"/><path class="cls-1" d="M241.1973,68.04c-5.52,0-8.96-3.44-8.96-10.16V27.3193h-6.88v-1.6h6.88v-10.48l1.76-.16v10.64h11.52l-.32,1.6h-11.2V57.8c0,5.6,2.48,8.5606,7.36,8.5606a13.35,13.35,0,0,0,7.12-2.08l.8,1.3593A14.6438,14.6438,0,0,1,241.1973,68.04Z" transform="translate(-9.8403 -8.3584)"/><path class="cls-1" d="M288.957,37.72v29.52h-1.76v-29.36c0-7.36-3.04-11.36-9.36-11.36-6.72,0-11.28,4-15.2,10V67.2393h-1.76V8.5986l1.76-.24V34.1191c3.76-5.6005,8.64-9.2,15.2-9.2C285.3569,24.9189,288.957,29.7188,288.957,37.72Z" transform="translate(-9.8403 -8.3584)"/><path class="cls-1" d="M336.876,47.56H307.8354c.4,12.7207,6.32,18.8008,14.72,18.8008,4.96,0,8.16-1.6006,11.76-4.5606l.96,1.3594a18.468,18.468,0,0,1-12.72,4.8808c-10.08,0-16.56-7.76-16.56-21.2011,0-13.68,6.32-21.92,15.92-21.92,10.24,0,15.12,8,15.12,19.6C337.0361,45.64,336.9561,46.6787,336.876,47.56Zm-1.6-3.68c0-10.0811-4.08-17.3613-13.2-17.3613-7.92,0-14,6.32-14.24,19.5205h27.44Z" transform="translate(-9.8403 -8.3584)"/><path class="cls-1" d="M407.1953,66.76l-.48,1.28c-3.2793-1.041-4.72-3.12-4.8-8.08-2.96,5.2793-7.36,8.08-13.5205,8.08-7.84,0-12.48-4.9609-12.48-12.32,0-8.48,6.48-13.1211,16.32-13.1211h9.44V37.64c0-7.2011-2.64-11.121-10.64-11.121a29.9274,29.9274,0,0,0-11.44,2.6406l-.56-1.52a30.6081,30.6081,0,0,1,12-2.72c8.8,0,12.4,4.4,12.4,12.5606V58.44C403.4355,63.96,404.4746,65.8,407.1953,66.76Zm-5.52-9.04V44.1992h-9.12c-9.12,0-14.72,3.92-14.72,11.5205,0,6.5606,4,10.6407,10.56,10.6407C394.875,66.36,398.9551,63.0791,401.6748,57.72Z" transform="translate(-9.8403 -8.3584)"/><path class="cls-1" d="M452.6348,37.72v29.52h-1.76v-29.36c0-7.5205-3.041-11.36-9.3613-11.36-6.7188,0-11.2793,4-15.1992,10V67.2393h-1.76v-41.52h1.5195l.16,8.48c3.76-5.6006,8.72-9.28,15.2793-9.28C449.1152,24.9189,452.6348,29.56,452.6348,37.72Z" transform="translate(-9.8403 -8.3584)"/><path class="cls-1" d="M475.834,10.9189a1.5173,1.5173,0,0,1-1.6807,1.52,1.5394,1.5394,0,0,1-1.6006-1.52,1.6039,1.6039,0,0,1,1.6006-1.6005A1.575,1.575,0,0,1,475.834,10.9189Zm-2.5606,56.32v-41.52h1.76V67.2393Z" transform="translate(-9.8403 -8.3584)"/><path class="cls-1" d="M545.5137,37.72v29.52h-1.76v-29.36c0-7.36-2.96-11.36-8.5605-11.36-5.68,0-10.08,4-13.52,10V67.2393h-1.76V37.72c0-7.2011-2.8809-11.2011-8.5606-11.2011-5.6,0-10,4-13.44,10V67.2393h-1.76v-41.52h1.5205l.1592,8.4c3.36-5.6005,8.08-9.2,13.6006-9.2,5.76,0,9.28,3.52,10.08,9.52,3.3593-5.76,8-9.52,13.68-9.52C541.9141,24.9189,545.5137,29.7188,545.5137,37.72Z" transform="translate(-9.8403 -8.3584)"/><path class="cls-1" d="M593.3535,66.76l-.4805,1.28c-3.2792-1.041-4.72-3.12-4.8-8.08-2.96,5.2793-7.36,8.08-13.5205,8.08-7.84,0-12.48-4.9609-12.48-12.32,0-8.48,6.48-13.1211,16.32-13.1211h9.44V37.64c0-7.2011-2.64-11.121-10.64-11.121a29.9274,29.9274,0,0,0-11.4405,2.6406l-.5595-1.52a30.6081,30.6081,0,0,1,12-2.72c8.8,0,12.4,4.4,12.4,12.5606V58.44C589.5938,63.96,590.6328,65.8,593.3535,66.76Zm-5.5205-9.04V44.1992h-9.12c-9.12,0-14.7207,3.92-14.7207,11.5205,0,6.5606,4,10.6407,10.56,10.6407C581.0332,66.36,585.1133,63.0791,587.833,57.72Z" transform="translate(-9.8403 -8.3584)"/><path class="cls-1" d="M619.1924,68.04c-5.52,0-8.96-3.44-8.96-10.16V27.3193h-6.8808v-1.6h6.8808v-10.48l1.76-.16v10.64h11.52l-.32,1.6h-11.2V57.8c0,5.6,2.4805,8.5606,7.36,8.5606a13.35,13.35,0,0,0,7.12-2.08l.8,1.3593A14.6431,14.6431,0,0,1,619.1924,68.04Z" transform="translate(-9.8403 -8.3584)"/><path class="cls-1" d="M641.4316,10.9189a1.5173,1.5173,0,0,1-1.6806,1.52,1.5394,1.5394,0,0,1-1.6006-1.52,1.6038,1.6038,0,0,1,1.6006-1.6005A1.5749,1.5749,0,0,1,641.4316,10.9189Zm-2.5605,56.32v-41.52h1.76V67.2393Z" transform="translate(-9.8403 -8.3584)"/><path class="cls-1" d="M691.3516,46.2793c0,13.8408-6.5606,21.7607-16.6407,21.7607-10.32,0-16.5605-8.08-16.5605-21.5214,0-13.76,6.6406-21.6,16.6406-21.6C684.9512,24.9189,691.3516,32.5186,691.3516,46.2793Zm-31.3614.2393c0,12.56,5.5205,19.8418,14.7207,19.8418,9.0411,0,14.8008-7.1211,14.8008-20.0811,0-12.72-5.52-19.7607-14.7207-19.7607C665.8311,26.5186,659.99,33.48,659.99,46.5186Z" transform="translate(-9.8403 -8.3584)"/><path class="cls-1" d="M736.8711,37.72v29.52h-1.76v-29.36c0-7.5205-3.041-11.36-9.3613-11.36-6.7187,0-11.2793,4-15.1992,10V67.2393h-1.76v-41.52h1.5195l.16,8.48c3.76-5.6006,8.72-9.28,15.2793-9.28C733.3516,24.9189,736.8711,29.56,736.8711,37.72Z" transform="translate(-9.8403 -8.3584)"/><path class="cls-1" d="M789.0293,66.36a8.2872,8.2872,0,0,0,3.041-.6407l.48,1.52a10.429,10.429,0,0,1-3.7607.8007c-3.6,0-5.76-2.16-5.76-6.7207V8.5986l1.76-.24v53.041C784.7891,64.68,785.99,66.36,789.0293,66.36Z" transform="translate(-9.8403 -8.3584)"/><path class="cls-1" d="M836.5488,46.2793c0,13.8408-6.56,21.7607-16.6406,21.7607-10.32,0-16.56-8.08-16.56-21.5214,0-13.76,6.64-21.6,16.64-21.6C830.1484,24.9189,836.5488,32.5186,836.5488,46.2793Zm-31.36.2393c0,12.56,5.52,19.8418,14.72,19.8418,9.041,0,14.8008-7.1211,14.8008-20.0811,0-12.72-5.5195-19.7607-14.7207-19.7607C811.0293,26.5186,805.1885,33.48,805.1885,46.5186Z" transform="translate(-9.8403 -8.3584)"/><path class="cls-1" d="M883.5889,46.2793c0,13.8408-6.56,21.7607-16.6407,21.7607-10.32,0-16.56-8.08-16.56-21.5214,0-13.76,6.64-21.6,16.64-21.6C877.1885,24.9189,883.5889,32.5186,883.5889,46.2793Zm-31.36.2393c0,12.56,5.5195,19.8418,14.72,19.8418,9.04,0,14.8-7.1211,14.8-20.0811,0-12.72-5.5195-19.7607-14.72-19.7607C858.0684,26.5186,852.2285,33.48,852.2285,46.5186Z" transform="translate(-9.8403 -8.3584)"/><path class="cls-1" d="M930.8691,46.1191c0,13.6006-5.2011,21.9209-15.041,21.9209-6,0-10.32-3.28-13.04-7.2V82.6006l-1.76.3193V25.7188h1.5205l.1592,6.8c3.04-4.4,7.36-7.6,13.5205-7.6C925.668,24.9189,930.8691,32.4385,930.8691,46.1191Zm-1.76,0c0-12.8-4.4805-19.6005-12.8809-19.6005-6.16,0-9.92,3.2-13.44,7.92V58.76c3.12,4.48,7.2,7.6006,12.96,7.6006C924.3887,66.36,929.1094,58.999,929.1094,46.1191Z" transform="translate(-9.8403 -8.3584)"/><path class="cls-1" d="M950.7871,66.04a1.7859,1.7859,0,0,1-1.92,1.84,1.84,1.84,0,1,1,0-3.68A1.7848,1.7848,0,0,1,950.7871,66.04Zm-2.8-14.9609v-38.32h1.68v38.32Z" transform="translate(-9.8403 -8.3584)"/></g></g></svg>