<svg xmlns="http://www.w3.org/2000/svg" viewBox="0 0 5361.3184 148.9502"><defs><style>.cls-1{fill:#f7f7f7;}</style></defs><g id="Layer_2" data-name="Layer 2"><g id="Layer_1-2" data-name="Layer 1"><path class="cls-1" d="M72.75,126.6748v-48.45H29.25v48.45H15V23.3247H29.25v43.2h43.5v-43.2H87v103.35Z" transform="translate(-15 -9.6748)"/><path class="cls-1" d="M130.0488,12.375a9.1566,9.1566,0,0,1,2.7,6.75,8.9076,8.9076,0,0,1-2.7,6.6748,9.6815,9.6815,0,0,1-7.05,2.625,9.4825,9.4825,0,0,1-6.9-2.625,8.9076,8.9076,0,0,1-2.7-6.6748,9.1566,9.1566,0,0,1,2.7-6.75,9.3412,9.3412,0,0,1,6.9-2.7A9.5341,9.5341,0,0,1,130.0488,12.375Zm0,35.25v79.05h-13.8V47.625Z" transform="translate(-15 -9.6748)"/><path class="cls-1" d="M169.6489,110.625a10.0022,10.0022,0,0,1,3,7.35,26.4738,26.4738,0,0,1-2.7,10.65l-10.05,22.95h-9.9l6-24.9a10.6778,10.6778,0,0,1-3.0752-3.75,10.9117,10.9117,0,0,1-1.125-4.95,10.2445,10.2445,0,0,1,10.35-10.35A10.18,10.18,0,0,1,169.6489,110.625Z" transform="translate(-15 -9.6748)"/><path class="cls-1" d="M329.2476,52.35q5.85,6.5251,5.85,17.625v56.7h-13.8v-54.75q0-15.3-11.1-15.3a14.95,14.95,0,0,0-9.9,3.375,47.1773,47.1773,0,0,0-8.7,10.5747v56.1h-13.8v-54.75q0-15.3-11.1-15.3a14.9617,14.9617,0,0,0-10.05,3.45,47.332,47.332,0,0,0-8.55,10.5v56.1h-13.8V47.625h11.85l1.2,11.55q8.8491-13.3491,22.8-13.35a20.7832,20.7832,0,0,1,12.5249,3.75,20.57,20.57,0,0,1,7.4248,10.5A37.17,37.17,0,0,1,300.3726,49.5a23.7283,23.7283,0,0,1,13.2749-3.6753Q323.396,45.8247,329.2476,52.35Z" transform="translate(-15 -9.6748)"/><path class="cls-1" d="M393.4482,127.125q-4.6508,13.7988-12.9751,21.8247-8.3247,8.0229-23.7749,9.6753l-1.5-10.8a40.6711,40.6711,0,0,0,12.45-3.9,21.5051,21.5051,0,0,0,7.4248-6.5249,45.7751,45.7751,0,0,0,5.1753-10.7251h-4.65l-26.55-79.05h14.7l21.15,69,20.7-69h14.25Z" transform="translate(-15 -9.6748)"/><path class="cls-1" d="M529.4219,52.2749q6.0747,6.4512,6.0747,17.7v56.7h-13.8v-54.75q0-8.3987-3.15-11.85-3.15-3.449-9.3-3.45a17.9978,17.9978,0,0,0-11.1,3.6,37.42,37.42,0,0,0-9,10.35v56.1h-13.8V47.625h11.85l1.2,11.7a31.2247,31.2247,0,0,1,10.4253-9.9,26.9164,26.9164,0,0,1,13.7251-3.6Q523.3464,45.8247,529.4219,52.2749Z" transform="translate(-15 -9.6748)"/><path class="cls-1" d="M618.1465,115.35a10.0376,10.0376,0,0,0,4.95,3.5254l-3.15,9.6a21.1016,21.1016,0,0,1-9.9-3.45,15.7785,15.7785,0,0,1-5.55-8.4q-7.9527,11.8506-23.55,11.85-11.7,0-18.45-6.6t-6.75-17.25q0-12.6006,9.0752-19.35,9.0732-6.75,25.7246-6.75h12.15v-5.85q0-8.3987-4.05-12-4.05-3.6-12.45-3.6-8.7012,0-21.3,4.2l-3.45-10.05q14.6982-5.3994,27.3-5.4,13.95,0,20.85,6.8252,6.8971,6.8269,6.9,19.4248v36.15Q616.4966,113.0272,618.1465,115.35Zm-15.45-9.5249v-18.15h-10.35q-21.9024,0-21.9,16.2,0,7.0518,3.45,10.65,3.449,3.6,10.2,3.6Q595.9443,118.125,602.6968,105.8247Z" transform="translate(-15 -9.6748)"/><path class="cls-1" d="M739.7949,52.35q5.8506,6.5251,5.85,17.625v56.7H731.8457v-54.75q0-15.3-11.1006-15.3A14.9473,14.9473,0,0,0,710.8457,60a47.1773,47.1773,0,0,0-8.7012,10.5747v56.1H688.3457v-54.75q0-15.3-11.1006-15.3a14.96,14.96,0,0,0-10.05,3.45,47.3321,47.3321,0,0,0-8.5508,10.5v56.1H644.8457V47.625h11.85l1.1992,11.55q8.8506-13.3491,22.8008-13.35a20.7866,20.7866,0,0,1,12.5254,3.75,20.5741,20.5741,0,0,1,7.4238,10.5A37.1827,37.1827,0,0,1,710.92,49.5a23.7311,23.7311,0,0,1,13.2754-3.6753Q733.9438,45.8247,739.7949,52.35Z" transform="translate(-15 -9.6748)"/><path class="cls-1" d="M832.7949,91.875h-50.4q.8994,13.05,6.6,19.2a19.13,19.13,0,0,0,14.7,6.15,32.0749,32.0749,0,0,0,10.5-1.65,42.3421,42.3421,0,0,0,10.05-5.25l6,8.25q-12.5991,9.9-27.6,9.9-16.5028,0-25.7246-10.8-9.2256-10.8-9.2256-29.7A56.2479,56.2479,0,0,1,771.67,66.15a34.2366,34.2366,0,0,1,11.3994-14.9253,28.9143,28.9143,0,0,1,17.4756-5.4q15.75,0,24.1494,10.35t8.4,28.65Q833.0947,88.2774,832.7949,91.875Zm-13.3506-11.1q0-11.7-4.6494-17.85-4.6522-6.1486-13.95-6.15-16.9525,0-18.45,24.9h37.05Z" transform="translate(-15 -9.6748)"/><path class="cls-1" d="M908.6934,12.375a9.1557,9.1557,0,0,1,2.7011,6.75A8.9068,8.9068,0,0,1,908.6934,25.8a9.6794,9.6794,0,0,1-7.0489,2.625,9.4838,9.4838,0,0,1-6.9-2.625,8.9061,8.9061,0,0,1-2.7-6.6748,9.155,9.155,0,0,1,2.7-6.75,9.3425,9.3425,0,0,1,6.9-2.7A9.532,9.532,0,0,1,908.6934,12.375Zm0,35.25v79.05H894.8945V47.625Z" transform="translate(-15 -9.6748)"/><path class="cls-1" d="M973.1934,48.0747a43.819,43.819,0,0,1,12.3007,6.75l-5.85,8.7a47.9282,47.9282,0,0,0-10.2754-5.1,31.868,31.868,0,0,0-10.2753-1.65q-6.75,0-10.65,2.7749a9.397,9.397,0,0,0-.2246,15.0752q3.6738,2.7,13.2753,5.25,13.1984,3.3011,19.7247,9,6.5244,5.7019,6.5253,15.6,0,11.7-9.0761,17.85-9.0762,6.1524-22.125,6.15-17.9986,0-29.85-10.35l7.3505-8.4a35.8058,35.8058,0,0,0,22.2,7.65q7.796,0,12.375-3.2251a10.1835,10.1835,0,0,0,4.5743-8.7749,11.5831,11.5831,0,0,0-1.65-6.5254,13.4159,13.4159,0,0,0-5.6992-4.35,78.4988,78.4988,0,0,0-11.85-3.9751q-12.6-3.2981-18.2246-8.85a18.9654,18.9654,0,0,1-5.625-14.1A18.4832,18.4832,0,0,1,933.8184,56.4,23.8574,23.8574,0,0,1,944.02,48.6a37.0353,37.0353,0,0,1,14.625-2.7749A44.008,44.008,0,0,1,973.1934,48.0747Z" transform="translate(-15 -9.6748)"/><path class="cls-1" d="M1140.1436,126.6748h-13.8008l-3.6-46.65q-2.25-27.45-2.55-42.15l-22.3506,77.1h-13.35l-23.55-77.25q0,18.753-1.95,43.35l-3.45,45.6h-13.5l8.55-103.35h19.2l21.75,75.15,20.7-75.15h19.35Z" transform="translate(-15 -9.6748)"/><path class="cls-1" d="M1218.5938,115.35a10.0347,10.0347,0,0,0,4.9492,3.5254l-3.1494,9.6a21.1037,21.1037,0,0,1-9.9-3.45,15.7757,15.7757,0,0,1-5.55-8.4q-7.9527,11.8506-23.55,11.85-11.7,0-18.45-6.6t-6.75-17.25q0-12.6006,9.0752-19.35,9.0732-6.75,25.7246-6.75h12.15v-5.85q0-8.3987-4.05-12-4.05-3.6-12.45-3.6-8.7012,0-21.3,4.2l-3.45-10.05q14.6982-5.3994,27.3-5.4,13.95,0,20.85,6.8252,6.8979,6.8269,6.9,19.4248v36.15Q1216.9434,113.0272,1218.5938,115.35Zm-15.45-9.5249v-18.15H1192.793q-21.9024,0-21.8994,16.2,0,7.0518,3.45,10.65,3.4482,3.6,10.1992,3.6Q1196.3906,118.125,1203.1436,105.8247Z" transform="translate(-15 -9.6748)"/><path class="cls-1" d="M1275.5918,84.375l27.45,42.3h-16.65l-19.35-33.45-19.65,33.45h-15.6l27.6-41.7-24.4492-37.35h16.1992l16.5,28.95,16.65-28.95h15.6Z" transform="translate(-15 -9.6748)"/><path class="cls-1" d="M1331.84,12.375a9.1585,9.1585,0,0,1,2.7,6.75,8.9094,8.9094,0,0,1-2.7,6.6748,9.6814,9.6814,0,0,1-7.05,2.625,9.4855,9.4855,0,0,1-6.9-2.625,8.9086,8.9086,0,0,1-2.6992-6.6748,9.1577,9.1577,0,0,1,2.6992-6.75,9.3441,9.3441,0,0,1,6.9-2.7A9.534,9.534,0,0,1,1331.84,12.375Zm0,35.25v79.05h-13.8V47.625Z" transform="translate(-15 -9.6748)"/><path class="cls-1" d="M1455.29,52.35q5.8492,6.5251,5.85,17.625v56.7h-13.8v-54.75q0-15.3-11.1-15.3a14.95,14.95,0,0,0-9.9,3.375,47.18,47.18,0,0,0-8.7,10.5747v56.1h-13.8v-54.75q0-15.3-11.1-15.3a14.9641,14.9641,0,0,0-10.0507,3.45,47.3571,47.3571,0,0,0-8.55,10.5v56.1h-13.8V47.625h11.85l1.2,11.55q8.8492-13.3491,22.8-13.35a20.7844,20.7844,0,0,1,12.5253,3.75,20.57,20.57,0,0,1,7.4248,10.5A37.1708,37.1708,0,0,1,1426.415,49.5a23.7279,23.7279,0,0,1,13.2745-3.6753Q1449.44,45.8247,1455.29,52.35Z" transform="translate(-15 -9.6748)"/><path class="cls-1" d="M1548.2891,91.875h-50.4q.8994,13.05,6.6,19.2a19.13,19.13,0,0,0,14.7,6.15,32.0753,32.0753,0,0,0,10.5-1.65,42.3459,42.3459,0,0,0,10.05-5.25l6,8.25q-12.5991,9.9-27.6,9.9-16.503,0-25.7246-10.8-9.2256-10.8-9.2256-29.7a56.2461,56.2461,0,0,1,3.9756-21.8247,34.2359,34.2359,0,0,1,11.3994-14.9253,28.9141,28.9141,0,0,1,17.4756-5.4q15.75,0,24.1494,10.35t8.4,28.65Q1548.5889,88.2774,1548.2891,91.875Zm-13.3506-11.1q0-11.7-4.6494-17.85-4.6524-6.1486-13.95-6.15-16.9527,0-18.45,24.9h37.05Z" transform="translate(-15 -9.6748)"/><path class="cls-1" d="M1667.0889,23.3247l-1.65,11.4h-40.05v33.75h34.8v11.4h-34.8v35.4h42.9v11.4h-57.15V23.3247Z" transform="translate(-15 -9.6748)"/><path class="cls-1" d="M1743.2119,52.2749q6.0747,6.4512,6.0752,17.7v56.7h-13.8008v-54.75q0-8.3987-3.1494-11.85-3.1509-3.449-9.3-3.45a17.9982,17.9982,0,0,0-11.1006,3.6,37.4235,37.4235,0,0,0-9,10.35v56.1h-13.8V47.625h11.85l1.2,11.7a31.2288,31.2288,0,0,1,10.4248-9.9,26.9187,26.9187,0,0,1,13.7256-3.6Q1737.1372,45.8247,1743.2119,52.2749Z" transform="translate(-15 -9.6748)"/><path class="cls-1" d="M1840.7861,51.2246a42.3146,42.3146,0,0,1-9.9,1.95q-5.3994.45-13.1992.45,13.95,6.3,13.9492,19.95,0,11.8513-8.1,19.35-8.1006,7.5022-22.05,7.5a32.516,32.516,0,0,1-10.05-1.5,8.4919,8.4919,0,0,0-2.8506,3.2251,8.8687,8.8687,0,0,0-1.05,4.125q0,6.4512,10.35,6.45h12.6006a33.2138,33.2138,0,0,1,14.1,2.85,22.81,22.81,0,0,1,9.5254,7.8,19.5,19.5,0,0,1,3.375,11.25q0,11.5488-9.45,17.7749-9.45,6.2226-27.6,6.2251-12.7515,0-20.1758-2.625-7.4238-2.6265-10.5742-7.875-3.1509-5.253-3.15-13.5h12.45a13.8067,13.8067,0,0,0,1.8,7.5747q1.8,2.7736,6.45,4.2,4.6481,1.4238,13.2,1.4248,12.4483,0,17.7744-3.0747a9.9981,9.9981,0,0,0,5.3252-9.2251,9.4978,9.4978,0,0,0-4.2-8.4q-4.2011-2.8476-11.7-2.85h-12.4492q-10.0517,0-15.2256-4.2749a13.3453,13.3453,0,0,1-5.1748-10.7251,13.9531,13.9531,0,0,1,2.25-7.5,21.9867,21.9867,0,0,1,6.45-6.45,24.8248,24.8248,0,0,1-10.125-8.9248,24.5912,24.5912,0,0,1-3.2256-12.9751,26.133,26.133,0,0,1,3.9756-14.25,27.0952,27.0952,0,0,1,10.95-9.8252,33.9443,33.9443,0,0,1,15.5244-3.5249,109.3358,109.3358,0,0,0,15.6006-.6748,53.8473,53.8473,0,0,0,10.4248-2.25q4.1236-1.4238,10.125-4.125ZM1788.5107,60.6q-4.2744,4.8765-4.2744,12.8252,0,8.1,4.35,12.9751t12.3,4.875q8.1006,0,12.375-4.7251t4.2754-13.2749q0-17.55-16.95-17.55Q1792.7856,55.7246,1788.5107,60.6Z" transform="translate(-15 -9.6748)"/><path class="cls-1" d="M1912.0361,91.875h-50.4q.9,13.05,6.6,19.2a19.13,19.13,0,0,0,14.7,6.15,32.0745,32.0745,0,0,0,10.5-1.65,42.3445,42.3445,0,0,0,10.05-5.25l6,8.25q-12.5992,9.9-27.6,9.9-16.5029,0-25.7246-10.8-9.2256-10.8-9.2256-29.7a56.2479,56.2479,0,0,1,3.9756-21.8247,34.2374,34.2374,0,0,1,11.3994-14.9253,28.9143,28.9143,0,0,1,17.4756-5.4q15.75,0,24.1494,10.35t8.4,28.65Q1912.3359,88.2774,1912.0361,91.875Zm-13.3506-11.1q0-11.7-4.6494-17.85-4.6522-6.1486-13.95-6.15-16.9525,0-18.45,24.9h37.05Z" transform="translate(-15 -9.6748)"/><path class="cls-1" d="M1938.0605,123.9q-4.4252-4.5739-4.4248-12.8252v-95.25l13.8-1.65v96.6a8.0752,8.0752,0,0,0,1.125,4.8,4.4779,4.4779,0,0,0,3.8252,1.5,13.64,13.64,0,0,0,5.1-.9l3.6005,9.6a22.4976,22.4976,0,0,1-10.95,2.7Q1942.4863,128.4746,1938.0605,123.9Z" transform="translate(-15 -9.6748)"/><path class="cls-1" d="M2014.3359,48.0747a43.8007,43.8007,0,0,1,12.3,6.75l-5.85,8.7a47.8849,47.8849,0,0,0-10.2754-5.1,31.8581,31.8581,0,0,0-10.2744-1.65q-6.75,0-10.65,2.7749a9.3957,9.3957,0,0,0-.2246,15.0752q3.6738,2.7,13.2744,5.25,13.1983,3.3011,19.7256,9,6.5244,5.7019,6.5244,15.6,0,11.7-9.0752,17.85-9.0761,6.1524-22.125,6.15-18,0-29.85-10.35l7.35-8.4a35.8079,35.8079,0,0,0,22.2,7.65q7.7975,0,12.375-3.2251a10.1823,10.1823,0,0,0,4.5752-8.7749,11.5823,11.5823,0,0,0-1.65-6.5254,13.4153,13.4153,0,0,0-5.6992-4.35,78.5125,78.5125,0,0,0-11.8506-3.9751q-12.5991-3.2981-18.2246-8.85a18.9654,18.9654,0,0,1-5.625-14.1A18.4847,18.4847,0,0,1,1974.9609,56.4a23.8551,23.8551,0,0,1,10.2-7.8,37.0353,37.0353,0,0,1,14.625-2.7749A44.0093,44.0093,0,0,1,2014.3359,48.0747Z" transform="translate(-15 -9.6748)"/><path class="cls-1" d="M3420.1826,126.6748v-48.45h-43.5v48.45h-14.25V23.3247h14.25v43.2h43.5v-43.2h14.25v103.35Z" transform="translate(-15 -9.6748)"/><path class="cls-1" d="M3477.4814,12.375a9.1581,9.1581,0,0,1,2.7,6.75,8.909,8.909,0,0,1-2.7,6.6748,9.6814,9.6814,0,0,1-7.05,2.625,9.4851,9.4851,0,0,1-6.9-2.625,8.9083,8.9083,0,0,1-2.6993-6.6748,9.1574,9.1574,0,0,1,2.6993-6.75,9.3437,9.3437,0,0,1,6.9-2.7A9.534,9.534,0,0,1,3477.4814,12.375Zm0,35.25v79.05h-13.8V47.625Z" transform="translate(-15 -9.6748)"/><path class="cls-1" d="M3517.0811,110.625a9.9983,9.9983,0,0,1,3,7.35,26.4793,26.4793,0,0,1-2.6993,10.65l-10.0507,22.95h-9.8995l6-24.9a10.6788,10.6788,0,0,1-3.0752-3.75,10.9117,10.9117,0,0,1-1.125-4.95,10.2445,10.2445,0,0,1,10.35-10.35A10.1793,10.1793,0,0,1,3517.0811,110.625Z" transform="translate(-15 -9.6748)"/><path class="cls-1" d="M3676.6807,52.35q5.8491,6.5251,5.85,17.625v56.7h-13.8v-54.75q0-15.3-11.1-15.3a14.95,14.95,0,0,0-9.9,3.375,47.1773,47.1773,0,0,0-8.7,10.5747v56.1h-13.8v-54.75q0-15.3-11.1-15.3a14.9644,14.9644,0,0,0-10.0508,3.45,47.36,47.36,0,0,0-8.55,10.5v56.1h-13.8V47.625h11.85l1.2,11.55q8.8491-13.3491,22.8-13.35a20.7847,20.7847,0,0,1,12.5254,3.75,20.57,20.57,0,0,1,7.4248,10.5A37.17,37.17,0,0,1,3647.8057,49.5a23.7278,23.7278,0,0,1,13.2744-3.6753Q3670.83,45.8247,3676.6807,52.35Z" transform="translate(-15 -9.6748)"/><path class="cls-1" d="M3740.8818,127.125q-4.6523,13.7988-12.9755,21.8247-8.3248,8.0229-23.7745,9.6753l-1.5-10.8a40.6656,40.6656,0,0,0,12.4493-3.9,21.5046,21.5046,0,0,0,7.4257-6.5249,45.776,45.776,0,0,0,5.1748-10.7251h-4.65l-26.55-79.05h14.7l21.1495,69,20.7-69h14.25Z" transform="translate(-15 -9.6748)"/><path class="cls-1" d="M3876.8555,52.2749q6.0747,6.4512,6.0752,17.7v56.7H3869.13v-54.75q0-8.3987-3.1494-11.85-3.1509-3.449-9.3-3.45a17.9982,17.9982,0,0,0-11.1006,3.6,37.42,37.42,0,0,0-9,10.35v56.1h-13.8V47.625h11.85l1.2,11.7a31.2279,31.2279,0,0,1,10.4248-9.9,26.9182,26.9182,0,0,1,13.7256-3.6Q3870.7808,45.8247,3876.8555,52.2749Z" transform="translate(-15 -9.6748)"/><path class="cls-1" d="M3965.58,115.35a10.0347,10.0347,0,0,0,4.9492,3.5254l-3.1494,9.6a21.1037,21.1037,0,0,1-9.9-3.45,15.7757,15.7757,0,0,1-5.55-8.4q-7.9527,11.8506-23.55,11.85-11.7,0-18.45-6.6t-6.75-17.25q0-12.6006,9.0752-19.35,9.0732-6.75,25.7246-6.75h12.15v-5.85q0-8.3987-4.05-12-4.05-3.6-12.45-3.6-8.7012,0-21.3,4.2l-3.45-10.05q14.6982-5.3994,27.3-5.4,13.95,0,20.85,6.8252,6.8979,6.8269,6.9,19.4248v36.15Q3963.93,113.0272,3965.58,115.35Zm-15.45-9.5249v-18.15h-10.3506q-21.9024,0-21.8994,16.2,0,7.0518,3.45,10.65,3.4482,3.6,10.1992,3.6Q3943.3769,118.125,3950.13,105.8247Z" transform="translate(-15 -9.6748)"/><path class="cls-1" d="M4087.2285,52.35q5.8491,6.5251,5.85,17.625v56.7h-13.8v-54.75q0-15.3-11.1-15.3a14.95,14.95,0,0,0-9.9,3.375,47.18,47.18,0,0,0-8.7,10.5747v56.1h-13.8v-54.75q0-15.3-11.1-15.3a14.9644,14.9644,0,0,0-10.0508,3.45,47.36,47.36,0,0,0-8.55,10.5v56.1h-13.8V47.625h11.85l1.2,11.55q8.8491-13.3491,22.8-13.35a20.7845,20.7845,0,0,1,12.5254,3.75,20.57,20.57,0,0,1,7.4248,10.5A37.1708,37.1708,0,0,1,4058.3535,49.5a23.7278,23.7278,0,0,1,13.2744-3.6753Q4081.3779,45.8247,4087.2285,52.35Z" transform="translate(-15 -9.6748)"/><path class="cls-1" d="M4180.2275,91.875h-50.4q.9,13.05,6.6,19.2a19.13,19.13,0,0,0,14.7,6.15,32.0753,32.0753,0,0,0,10.5-1.65,42.3459,42.3459,0,0,0,10.05-5.25l6,8.25q-12.5993,9.9-27.6,9.9-16.5029,0-25.7246-10.8-9.2256-10.8-9.2255-29.7a56.2479,56.2479,0,0,1,3.9755-21.8247,34.2368,34.2368,0,0,1,11.4-14.9253,28.9138,28.9138,0,0,1,17.4755-5.4q15.75,0,24.15,10.35t8.4,28.65Q4180.5273,88.2774,4180.2275,91.875Zm-13.35-11.1q0-11.7-4.65-17.85-4.6523-6.1486-13.95-6.15-16.9525,0-18.45,24.9h37.05Z" transform="translate(-15 -9.6748)"/><path class="cls-1" d="M4256.127,12.375a9.1584,9.1584,0,0,1,2.7,6.75,8.9093,8.9093,0,0,1-2.7,6.6748,9.6818,9.6818,0,0,1-7.05,2.625,9.4851,9.4851,0,0,1-6.9-2.625,8.9087,8.9087,0,0,1-2.6993-6.6748,9.1578,9.1578,0,0,1,2.6993-6.75,9.3437,9.3437,0,0,1,6.9-2.7A9.5344,9.5344,0,0,1,4256.127,12.375Zm0,35.25v79.05h-13.8V47.625Z" transform="translate(-15 -9.6748)"/><path class="cls-1" d="M4320.627,48.0747a43.8034,43.8034,0,0,1,12.3,6.75l-5.85,8.7a47.8843,47.8843,0,0,0-10.2753-5.1,31.8587,31.8587,0,0,0-10.2745-1.65q-6.75,0-10.65,2.7749a9.3957,9.3957,0,0,0-.2247,15.0752q3.674,2.7,13.2745,5.25,13.1982,3.3011,19.7255,9,6.5246,5.7019,6.5245,15.6,0,11.7-9.0752,17.85-9.0762,6.1524-22.125,6.15-18,0-29.85-10.35l7.35-8.4a35.8075,35.8075,0,0,0,22.2,7.65q7.7973,0,12.375-3.2251a10.1823,10.1823,0,0,0,4.5752-8.7749,11.5831,11.5831,0,0,0-1.65-6.5254,13.4157,13.4157,0,0,0-5.6993-4.35,78.5145,78.5145,0,0,0-11.85-3.9751q-12.5993-3.2981-18.2247-8.85a18.9654,18.9654,0,0,1-5.625-14.1A18.4842,18.4842,0,0,1,4281.252,56.4a23.8548,23.8548,0,0,1,10.2-7.8,37.036,37.036,0,0,1,14.625-2.7749A44.01,44.01,0,0,1,4320.627,48.0747Z" transform="translate(-15 -9.6748)"/><path class="cls-1" d="M4487.5762,126.6748h-13.8008l-3.6-46.65q-2.25-27.45-2.55-42.15l-22.3506,77.1h-13.35l-23.55-77.25q0,18.753-1.95,43.35l-3.45,45.6h-13.5l8.55-103.35h19.2l21.75,75.15,20.7-75.15h19.35Z" transform="translate(-15 -9.6748)"/><path class="cls-1" d="M4566.0264,115.35a10.0347,10.0347,0,0,0,4.9492,3.5254l-3.1494,9.6a21.1037,21.1037,0,0,1-9.9-3.45,15.7757,15.7757,0,0,1-5.55-8.4q-7.9527,11.8506-23.55,11.85-11.7,0-18.45-6.6t-6.75-17.25q0-12.6006,9.0752-19.35,9.0732-6.75,25.7246-6.75h12.15v-5.85q0-8.3987-4.05-12-4.05-3.6-12.45-3.6-8.7012,0-21.3,4.2l-3.45-10.05q14.6982-5.3994,27.3-5.4,13.95,0,20.85,6.8252,6.8979,6.8269,6.9,19.4248v36.15Q4564.376,113.0272,4566.0264,115.35Zm-15.45-9.5249v-18.15h-10.3506q-21.9024,0-21.8994,16.2,0,7.0518,3.45,10.65,3.4482,3.6,10.1992,3.6Q4543.8232,118.125,4550.5762,105.8247Z" transform="translate(-15 -9.6748)"/><path class="cls-1" d="M4623.0244,84.375l27.45,42.3h-16.65l-19.35-33.45-19.65,33.45h-15.6l27.6-41.7-24.4492-37.35h16.1992l16.5,28.95,16.65-28.95h15.6Z" transform="translate(-15 -9.6748)"/><path class="cls-1" d="M4679.2725,12.375a9.1585,9.1585,0,0,1,2.7,6.75,8.9094,8.9094,0,0,1-2.7,6.6748,9.6815,9.6815,0,0,1-7.05,2.625,9.4851,9.4851,0,0,1-6.9-2.625,8.9087,8.9087,0,0,1-2.6993-6.6748,9.1578,9.1578,0,0,1,2.6993-6.75,9.3438,9.3438,0,0,1,6.9-2.7A9.5341,9.5341,0,0,1,4679.2725,12.375Zm0,35.25v79.05h-13.8V47.625Z" transform="translate(-15 -9.6748)"/><path class="cls-1" d="M4802.7227,52.35q5.8491,6.5251,5.85,17.625v56.7h-13.8v-54.75q0-15.3-11.1-15.3a14.95,14.95,0,0,0-9.9,3.375,47.1773,47.1773,0,0,0-8.7,10.5747v56.1h-13.8v-54.75q0-15.3-11.1-15.3a14.9644,14.9644,0,0,0-10.0508,3.45,47.36,47.36,0,0,0-8.55,10.5v56.1h-13.8V47.625h11.85l1.2,11.55q8.8491-13.3491,22.8-13.35a20.7847,20.7847,0,0,1,12.5254,3.75,20.57,20.57,0,0,1,7.4248,10.5A37.17,37.17,0,0,1,4773.8477,49.5a23.7278,23.7278,0,0,1,13.2744-3.6753Q4796.8721,45.8247,4802.7227,52.35Z" transform="translate(-15 -9.6748)"/><path class="cls-1" d="M4895.7217,91.875h-50.4q.8994,13.05,6.6,19.2a19.13,19.13,0,0,0,14.7,6.15,32.0753,32.0753,0,0,0,10.5-1.65,42.3459,42.3459,0,0,0,10.05-5.25l6,8.25q-12.5991,9.9-27.6,9.9-16.503,0-25.7246-10.8-9.2256-10.8-9.2256-29.7a56.2461,56.2461,0,0,1,3.9756-21.8247,34.2359,34.2359,0,0,1,11.3994-14.9253,28.9141,28.9141,0,0,1,17.4756-5.4q15.75,0,24.1494,10.35t8.4,28.65Q4896.0215,88.2774,4895.7217,91.875Zm-13.3506-11.1q0-11.7-4.6494-17.85-4.6524-6.1486-13.95-6.15-16.9527,0-18.45,24.9h37.05Z" transform="translate(-15 -9.6748)"/><path class="cls-1" d="M5014.5215,23.3247l-1.65,11.4h-40.05v33.75h34.8v11.4h-34.8v35.4h42.9v11.4h-57.15V23.3247Z" transform="translate(-15 -9.6748)"/><path class="cls-1" d="M5090.6455,52.2749q6.0747,6.4512,6.0752,17.7v56.7H5082.92v-54.75q0-8.3987-3.1494-11.85-3.1509-3.449-9.3-3.45a17.9982,17.9982,0,0,0-11.1006,3.6,37.42,37.42,0,0,0-9,10.35v56.1h-13.8V47.625h11.85l1.2,11.7a31.2279,31.2279,0,0,1,10.4248-9.9,26.9187,26.9187,0,0,1,13.7256-3.6Q5084.5708,45.8247,5090.6455,52.2749Z" transform="translate(-15 -9.6748)"/><path class="cls-1" d="M5188.22,51.2246a42.3146,42.3146,0,0,1-9.9,1.95q-5.3994.45-13.1992.45,13.95,6.3,13.9492,19.95,0,11.8513-8.1,19.35-8.1006,7.5022-22.05,7.5a32.516,32.516,0,0,1-10.05-1.5,8.4919,8.4919,0,0,0-2.8506,3.2251,8.8687,8.8687,0,0,0-1.05,4.125q0,6.4512,10.35,6.45H5157.92a33.2138,33.2138,0,0,1,14.1,2.85,22.81,22.81,0,0,1,9.5254,7.8,19.5,19.5,0,0,1,3.375,11.25q0,11.5488-9.45,17.7749-9.45,6.2226-27.6,6.2251-12.7515,0-20.1758-2.625-7.4238-2.6265-10.5742-7.875-3.1509-5.253-3.15-13.5h12.45a13.8067,13.8067,0,0,0,1.8,7.5747q1.8,2.7736,6.45,4.2,4.6481,1.4238,13.2,1.4248,12.4482,0,17.7744-3.0747a9.9981,9.9981,0,0,0,5.3252-9.2251,9.4978,9.4978,0,0,0-4.2-8.4q-4.2011-2.8476-11.7-2.85H5142.62q-10.0518,0-15.2256-4.2749a13.3453,13.3453,0,0,1-5.1748-10.7251,13.9531,13.9531,0,0,1,2.25-7.5,21.9867,21.9867,0,0,1,6.45-6.45,24.8248,24.8248,0,0,1-10.125-8.9248,24.5912,24.5912,0,0,1-3.2256-12.9751,26.133,26.133,0,0,1,3.9756-14.25,27.0952,27.0952,0,0,1,10.95-9.8252,33.9443,33.9443,0,0,1,15.5244-3.5249A109.3358,109.3358,0,0,0,5163.62,45.15a53.8473,53.8473,0,0,0,10.4248-2.25q4.1235-1.4238,10.125-4.125ZM5135.9443,60.6q-4.2744,4.8765-4.2744,12.8252,0,8.1,4.35,12.9751t12.3,4.875q8.1006,0,12.375-4.7251t4.2754-13.2749q0-17.55-16.95-17.55Q5140.2192,55.7246,5135.9443,60.6Z" transform="translate(-15 -9.6748)"/><path class="cls-1" d="M5259.4688,91.875h-50.4q.8994,13.05,6.6,19.2a19.13,19.13,0,0,0,14.7,6.15,32.0753,32.0753,0,0,0,10.5-1.65,42.3459,42.3459,0,0,0,10.05-5.25l6,8.25q-12.5991,9.9-27.6,9.9-16.503,0-25.7246-10.8-9.2256-10.8-9.2256-29.7a56.2461,56.2461,0,0,1,3.9756-21.8247,34.2359,34.2359,0,0,1,11.3994-14.9253,28.9141,28.9141,0,0,1,17.4756-5.4q15.75,0,24.1494,10.35t8.4,28.65Q5259.7686,88.2774,5259.4688,91.875Zm-13.3506-11.1q0-11.7-4.6494-17.85-4.6524-6.1486-13.95-6.15-16.9527,0-18.45,24.9h37.05Z" transform="translate(-15 -9.6748)"/><path class="cls-1" d="M5285.4932,123.9q-4.4253-4.5739-4.4248-12.8252v-95.25l13.8-1.65v96.6a8.0752,8.0752,0,0,0,1.125,4.8,4.4779,4.4779,0,0,0,3.8252,1.5,13.64,13.64,0,0,0,5.1-.9l3.6006,9.6a22.4979,22.4979,0,0,1-10.95,2.7Q5289.919,128.4746,5285.4932,123.9Z" transform="translate(-15 -9.6748)"/><path class="cls-1" d="M5361.7686,48.0747a43.8034,43.8034,0,0,1,12.3,6.75l-5.85,8.7a47.8872,47.8872,0,0,0-10.2754-5.1,31.8587,31.8587,0,0,0-10.2745-1.65q-6.75,0-10.65,2.7749a9.3957,9.3957,0,0,0-.2247,15.0752q3.674,2.7,13.2745,5.25,13.1982,3.3011,19.7255,9,6.5246,5.7019,6.5245,15.6,0,11.7-9.0752,17.85-9.0762,6.1524-22.125,6.15-18,0-29.85-10.35l7.35-8.4a35.8077,35.8077,0,0,0,22.2,7.65q7.7973,0,12.375-3.2251a10.1823,10.1823,0,0,0,4.5752-8.7749,11.5831,11.5831,0,0,0-1.65-6.5254,13.4157,13.4157,0,0,0-5.6993-4.35,78.5105,78.5105,0,0,0-11.85-3.9751q-12.5993-3.2981-18.2246-8.85a18.9654,18.9654,0,0,1-5.625-14.1A18.4841,18.4841,0,0,1,5322.3936,56.4a23.8545,23.8545,0,0,1,10.2-7.8,37.0353,37.0353,0,0,1,14.625-2.7749A44.01,44.01,0,0,1,5361.7686,48.0747Z" transform="translate(-15 -9.6748)"/></g></g></svg>