<svg xmlns="http://www.w3.org/2000/svg" viewBox="0 0 1564.4541 101.3525"><defs><style>.cls-1{fill:#f7f7f7;}</style></defs><g id="Layer_2" data-name="Layer 2"><g id="Layer_1-2" data-name="Layer 1"><path class="cls-1" d="M8.5938,15.9521H23.3105V94.0479H8.5938Zm6.8212,32.28H60.9082v14.18H15.415Zm35.9327-32.28H66.0645V94.0479H51.3477Z" transform="translate(-8.5938 -15.9521)"/><path class="cls-1" d="M84.4521,15.9521H99.1689V30.6689H84.4521Zm0,22.3438H99.1689v55.752H84.4521Z" transform="translate(-8.5938 -15.9521)"/><path class="cls-1" d="M113.5283,79.3311h14.7168V98.56l-14.7168,14.0722Z" transform="translate(-8.5938 -15.9521)"/><path class="cls-1" d="M176.5679,38.2959h14.7168v55.752H176.5679ZM209.063,61.875q0-4.8867-2.417-7.5464a8.7508,8.7508,0,0,0-6.8213-2.6587,8.4182,8.4182,0,0,0-6.311,2.2827,8.8015,8.8015,0,0,0-2.229,6.4185l-1.128-12.3535a20.18,20.18,0,0,1,6.1768-7.8418,14.4348,14.4348,0,0,1,8.7012-2.6856,16.7148,16.7148,0,0,1,16.5429,11.1719A35.2715,35.2715,0,0,1,223.78,61.8213V94.0479H209.063Zm32.4951,0q0-4.8867-2.3364-7.5464a9.6129,9.6129,0,0,0-13.1592-.1074q-2.2837,2.5518-2.2827,7.2241l-2.7393-12.8906a20.7853,20.7853,0,0,1,6.8482-8.1909,16.2771,16.2771,0,0,1,9.3725-2.8736,18.12,18.12,0,0,1,10.2857,2.8467,17.66,17.66,0,0,1,6.499,8.3252,34.8966,34.8966,0,0,1,2.229,13.1592V94.0479H241.5581Z" transform="translate(-8.5938 -15.9521)"/><path class="cls-1" d="M266.3374,38.2959h13.8574L298.94,86.7432l-9.292,11.87Zm51.5088,0L293.0317,107.1a17.8,17.8,0,0,1-3.4643,6.0425,11.658,11.658,0,0,1-5.1026,3.1958,24.9776,24.9776,0,0,1-7.4926.9668h-3.2764V103.0176h3.2764A7.0107,7.0107,0,0,0,280.92,101.97a6.371,6.371,0,0,0,2.39-3.4106l20.6787-60.2637Z" transform="translate(-8.5938 -15.9521)"/><path class="cls-1" d="M361.0669,38.2959h14.7168v55.752H361.0669Zm32.2266,21.9678a8.4,8.4,0,0,0-2.3365-6.3379,9.1638,9.1638,0,0,0-6.6333-2.2559,8.4184,8.4184,0,0,0-6.311,2.2827,8.802,8.802,0,0,0-2.229,6.4185l-1.1279-12.3535a20.877,20.877,0,0,1,6.0424-7.8955,14.3433,14.3433,0,0,1,8.8355-2.6319q8.8082,0,13.6426,5.9351T408.01,60.21V94.0479H393.2935Z" transform="translate(-8.5938 -15.9521)"/><path class="cls-1" d="M427.3379,90.5835q-4.4312-4.27-4.4312-12.9712,0-8.2705,4.9683-12.4072T442.78,61.0693h13.9648l.752,11.2256H442.8335a7.9619,7.9619,0,0,0-4.9951,1.3159,4.7889,4.7889,0,0,0-1.6651,4.0015,4.4528,4.4528,0,0,0,2.0948,4.0552q2.0947,1.3169,6.3379,1.3159,5.9076,0,8.7817-1.3428a4.4047,4.4047,0,0,0,2.8735-4.1894l1.128,8.11a7.6077,7.6077,0,0,1-2.7662,5.1026,15.9986,15.9986,0,0,1-6.123,3.1421,28.2228,28.2228,0,0,1-7.7612,1.0473Q431.7681,94.8535,427.3379,90.5835Zm28.9233-31.8774a7.2422,7.2422,0,0,0-2.5781-5.962q-2.5781-2.0946-7.3047-2.0947a19.4372,19.4372,0,0,0-6.1767,1.02,18.2225,18.2225,0,0,0-5.4248,2.8467l-9.1309-8.97a21.9658,21.9658,0,0,1,8.8086-5.9351A33.3655,33.3655,0,0,1,446.5933,37.49a28.9169,28.9169,0,0,1,12.4609,2.4439,17.5571,17.5571,0,0,1,7.8687,7.09,21.8548,21.8548,0,0,1,2.7124,11.1988V94.0479H456.2612Z" transform="translate(-8.5938 -15.9521)"/><path class="cls-1" d="M487.2173,38.2959h14.7168v55.752H487.2173ZM519.7124,61.875q0-4.8867-2.417-7.5464a8.7508,8.7508,0,0,0-6.8213-2.6587,8.4182,8.4182,0,0,0-6.311,2.2827,8.802,8.802,0,0,0-2.229,6.4185l-1.1279-12.3535a20.1784,20.1784,0,0,1,6.1767-7.8418,14.4348,14.4348,0,0,1,8.7012-2.6856,16.7151,16.7151,0,0,1,16.543,11.1719,35.2736,35.2736,0,0,1,2.2021,13.1592V94.0479H519.7124Zm32.4951,0q0-4.8867-2.3364-7.5464a9.6129,9.6129,0,0,0-13.1592-.1074q-2.2836,2.5518-2.2827,7.2241L531.69,48.5547a20.7862,20.7862,0,0,1,6.8482-8.1909,16.2771,16.2771,0,0,1,9.3725-2.8736,18.12,18.12,0,0,1,10.2857,2.8467,17.66,17.66,0,0,1,6.499,8.3252,34.8966,34.8966,0,0,1,2.229,13.1592V94.0479H552.2075Z" transform="translate(-8.5938 -15.9521)"/><path class="cls-1" d="M594.63,91.9263a20.0072,20.0072,0,0,1-8.7281-8.54,28.2346,28.2346,0,0,1-3.0078-13.5083V63.5938a31.799,31.799,0,0,1,2.8736-14.126,20.0133,20.0133,0,0,1,8.3789-8.916A26.9688,26.9688,0,0,1,607.44,37.49a21.25,21.25,0,0,1,12.5147,3.6524,22.5031,22.5031,0,0,1,7.9223,10.6079A46.27,46.27,0,0,1,630.59,68.5352v3.6523H592.4551V62.251h24.707l-.1611-1.2891a12.9978,12.9978,0,0,0-3.0347-7.4658,8.4829,8.4829,0,0,0-6.5259-2.6318q-5.3174,0-8.2446,3.1689t-2.9272,8.97v7.09q0,5.6939,3.1958,8.8086t8.9428,3.1152a17.1277,17.1277,0,0,0,5.8545-1.0474,17.8015,17.8015,0,0,0,5.2637-2.9809l9.6142,8.54a32.0843,32.0843,0,0,1-9.7753,6.15,29.2279,29.2279,0,0,1-10.9571,2.1753A29.9255,29.9255,0,0,1,594.63,91.9263Z" transform="translate(-8.5938 -15.9521)"/><path class="cls-1" d="M678.376,15.9521h14.7168V30.6689H678.376Zm0,22.3438h14.7168v55.752H678.376Z" transform="translate(-8.5938 -15.9521)"/><path class="cls-1" d="M721.4707,93.9673a44.2422,44.2422,0,0,1-8.8623-2.605,32.5768,32.5768,0,0,1-7.3047-4.1357l9.0772-11.333a35.4871,35.4871,0,0,0,8.4326,3.9746,27.7041,27.7041,0,0,0,8.3789,1.3964,21.9931,21.9931,0,0,0,8.0029-1.1547q2.8463-1.1544,2.8467-3.1958a3.3962,3.3962,0,0,0-1.2354-2.8467,7.574,7.574,0,0,0-3.1689-1.37,51.33,51.33,0,0,0-5.4248-.7251q-.9668-.107-1.9605-.2149t-2.0141-.2148a3.6942,3.6942,0,0,0-.4566-.0806,4.2281,4.2281,0,0,0-.4565-.0269,60.207,60.207,0,0,1-9.99-1.9873A12.8056,12.8056,0,0,1,710.97,64.91q-2.606-3.3559-2.605-9.7486a15.7954,15.7954,0,0,1,10.4737-15.603A32.9131,32.9131,0,0,1,731.1924,37.49a42.3114,42.3114,0,0,1,8.4595.8594,43.6454,43.6454,0,0,1,8.0835,2.4707,39.0136,39.0136,0,0,1,7.1435,3.8672L746.124,55.376a35.4321,35.4321,0,0,0-7.6269-3.169,27.9261,27.9261,0,0,0-7.627-1.1279A18.7355,18.7355,0,0,0,723.9414,52.1q-2.4713,1.021-2.4707,2.8467a2.4121,2.4121,0,0,0,1.3159,2.1753A9.7563,9.7563,0,0,0,726.063,58.25q1.96.35,5.72.7788.4835.0543.9668.1074t.9668.1075a1.975,1.975,0,0,0,.4834.0537,2.0318,2.0318,0,0,1,.4834.0537,66.9894,66.9894,0,0,1,10.581,1.9336,13.7555,13.7555,0,0,1,6.9556,4.7265q2.8727,3.5449,2.8736,10.42a16.4359,16.4359,0,0,1-10.9571,16.2475,34.4722,34.4722,0,0,1-12.9443,2.1753A52.642,52.642,0,0,1,721.4707,93.9673Z" transform="translate(-8.5938 -15.9521)"/><path class="cls-1" d="M852.8311,15.9521h19.39V94.0479h-13.374v-60.64l.5371,3.4375-14.9317,48.501h-12.998L816.5225,37.92l.5371-4.5117v60.64H803.6855V15.9521h19.39l14.8779,52.6368Z" transform="translate(-8.5938 -15.9521)"/><path class="cls-1" d="M893.1592,90.5835q-4.4312-4.27-4.4307-12.9712,0-8.2705,4.9678-12.4072t14.9053-4.1358h13.9648l.752,11.2256H908.6543a7.9585,7.9585,0,0,0-4.9941,1.3159,4.7866,4.7866,0,0,0-1.6661,4.0015,4.4537,4.4537,0,0,0,2.0957,4.0552q2.0948,1.3169,6.3379,1.3159,5.9063,0,8.7813-1.3428a4.4042,4.4042,0,0,0,2.873-4.1894l1.1289,8.11a7.6082,7.6082,0,0,1-2.7666,5.1026,15.9986,15.9986,0,0,1-6.123,3.1421,28.2194,28.2194,0,0,1-7.7608,1.0473Q897.59,94.8535,893.1592,90.5835ZM922.082,58.7061a7.2422,7.2422,0,0,0-2.5781-5.962q-2.578-2.0946-7.3047-2.0947a19.4363,19.4363,0,0,0-6.1758,1.02,18.24,18.24,0,0,0-5.4257,2.8467l-9.1309-8.97a21.9728,21.9728,0,0,1,8.8086-5.9351A33.3693,33.3693,0,0,1,912.4141,37.49a28.9169,28.9169,0,0,1,12.4609,2.4439,17.5581,17.5581,0,0,1,7.8691,7.09,21.8539,21.8539,0,0,1,2.7129,11.1988V94.0479H922.082Z" transform="translate(-8.5938 -15.9521)"/><path class="cls-1" d="M967.38,63.2715l8.7549,10.0976L963.2979,94.0479h-15.63Zm2.6855,7.7344-21.5381-32.71H964.748l13.3741,22.5049,21.86,33.2471h-16.167ZM972.59,58.0615l10.3125-19.7656H999.123L981.2373,68.374Z" transform="translate(-8.5938 -15.9521)"/><path class="cls-1" d="M1012.1934,15.9521H1026.91V30.6689h-14.7168Zm0,22.3438H1026.91v55.752h-14.7168Z" transform="translate(-8.5938 -15.9521)"/><path class="cls-1" d="M1043.6865,38.2959h14.7168v55.752h-14.7168Zm32.4951,23.5791q0-4.8867-2.417-7.5464a8.7507,8.7507,0,0,0-6.8212-2.6587,8.4214,8.4214,0,0,0-6.3116,2.2827,8.8059,8.8059,0,0,0-2.2285,6.4185l-1.1279-12.3535a20.1793,20.1793,0,0,1,6.1767-7.8418,14.435,14.435,0,0,1,8.7012-2.6856,16.7139,16.7139,0,0,1,16.543,11.1719,35.2716,35.2716,0,0,1,2.2021,13.1592V94.0479h-14.7168Zm32.4952,0q0-4.8867-2.336-7.5464a9.6141,9.6141,0,0,0-13.16-.1074q-2.2822,2.5518-2.2823,7.2241l-2.7392-12.8906a20.7932,20.7932,0,0,1,6.8476-8.1909A16.2815,16.2815,0,0,1,1104.38,37.49a18.1158,18.1158,0,0,1,10.2851,2.8467,17.6559,17.6559,0,0,1,6.5,8.3252,34.8969,34.8969,0,0,1,2.2286,13.1592V94.0479h-14.7168Z" transform="translate(-8.5938 -15.9521)"/><path class="cls-1" d="M1151.1,91.9263a20.0034,20.0034,0,0,1-8.7285-8.54,28.2334,28.2334,0,0,1-3.0078-13.5083V63.5938a31.8129,31.8129,0,0,1,2.873-14.126,20.0242,20.0242,0,0,1,8.3789-8.916,26.9739,26.9739,0,0,1,13.294-3.0616,21.25,21.25,0,0,1,12.5146,3.6524,22.4954,22.4954,0,0,1,7.9219,10.6079,46.25,46.25,0,0,1,2.7129,16.7847v3.6523h-38.1348V62.251h24.7071l-.1612-1.2891a12.9962,12.9962,0,0,0-3.0342-7.4658,8.4836,8.4836,0,0,0-6.5263-2.6318q-5.3174,0-8.2451,3.1689t-2.9268,8.97v7.09q0,5.6939,3.1963,8.8086t8.9424,3.1152a17.1281,17.1281,0,0,0,5.8545-1.0474,17.8,17.8,0,0,0,5.2636-2.9809l9.6143,8.54a32.086,32.086,0,0,1-9.7754,6.15,29.2274,29.2274,0,0,1-10.957,2.1753A29.9212,29.9212,0,0,1,1151.1,91.9263Z" transform="translate(-8.5938 -15.9521)"/><path class="cls-1" d="M1236.7246,15.9521h14.7168V94.0479h-14.7168Zm5.3174,0h46.9971v14.18H1242.042Zm0,32.2266h41.0889v14.18H1242.042Zm0,31.69h46.9971v14.18H1242.042Z" transform="translate(-8.5938 -15.9521)"/><path class="cls-1" d="M1304.4727,38.2959H1319.19v55.752h-14.7168Zm32.2265,21.9678a8.4033,8.4033,0,0,0-2.3359-6.3379A9.1666,9.1666,0,0,0,1327.73,51.67a8.421,8.421,0,0,0-6.3115,2.2827,8.8055,8.8055,0,0,0-2.2285,6.4185l-1.128-12.3535a20.8863,20.8863,0,0,1,6.042-7.8955,14.3464,14.3464,0,0,1,8.836-2.6319q8.808,0,13.6425,5.9351t4.834,16.7847V94.0479h-14.7168Z" transform="translate(-8.5938 -15.9521)"/><path class="cls-1" d="M1376.0078,92.0068a17.6569,17.6569,0,0,1-6.4189-8.2446,34.4514,34.4514,0,0,1-2.2022-13.0249v-8.916a35.2514,35.2514,0,0,1,2.2022-13.1592A16.716,16.716,0,0,1,1386.1318,37.49a13.5812,13.5812,0,0,1,8.1377,2.6587,18.743,18.743,0,0,1,5.9346,7.5464l-1.1279,12.3535a10.9783,10.9783,0,0,0-.9668-4.834,6.8161,6.8161,0,0,0-2.82-3.0346,8.9789,8.9789,0,0,0-4.4844-1.0474,7.79,7.79,0,0,0-6.418,2.82q-2.2836,2.82-2.2832,7.9224v8.8623q0,4.9951,2.2832,7.7344a7.89,7.89,0,0,0,6.418,2.7392,9.1672,9.1672,0,0,0,4.4844-1.02,6.71,6.71,0,0,0,2.82-2.9541,10.3575,10.3575,0,0,0,.9668-4.6728l.7519,12.73a14.696,14.696,0,0,1-5.2636,7.063,14.2657,14.2657,0,0,1-8.4327,2.4975A17.6548,17.6548,0,0,1,1376.0078,92.0068Zm.8594,22.3706a18.903,18.903,0,0,1-8.1377-6.5795l9.8828-9.0772a12.7353,12.7353,0,0,0,4.5117,3.1421,14.0651,14.0651,0,0,0,5.4785,1.1011,11.1437,11.1437,0,0,0,7.5459-2.5244,8.7311,8.7311,0,0,0,2.9278-6.9825V38.2959h14.7168V92.3828a27.5682,27.5682,0,0,1-2.9278,13.1592,19.3913,19.3913,0,0,1-8.539,8.3252,29.71,29.71,0,0,1-13.5625,2.8467A28.9029,28.9029,0,0,1,1376.8672,114.3774Z" transform="translate(-8.5938 -15.9521)"/><path class="cls-1" d="M1441.5,91.9263a20.0028,20.0028,0,0,1-8.7285-8.54,28.2334,28.2334,0,0,1-3.0078-13.5083V63.5938a31.8129,31.8129,0,0,1,2.873-14.126,20.0242,20.0242,0,0,1,8.3789-8.916A26.9739,26.9739,0,0,1,1454.31,37.49a21.25,21.25,0,0,1,12.5146,3.6524,22.4954,22.4954,0,0,1,7.9219,10.6079,46.25,46.25,0,0,1,2.7129,16.7847v3.6523h-38.1348V62.251h24.7071l-.1612-1.2891a12.9968,12.9968,0,0,0-3.0342-7.4658,8.4836,8.4836,0,0,0-6.5263-2.6318q-5.3175,0-8.2451,3.1689t-2.9268,8.97v7.09q0,5.6939,3.1963,8.8086t8.9424,3.1152a17.1281,17.1281,0,0,0,5.8545-1.0474,17.8,17.8,0,0,0,5.2636-2.9809l9.6143,8.54a32.086,32.086,0,0,1-9.7754,6.15,29.2274,29.2274,0,0,1-10.957,2.1753A29.9212,29.9212,0,0,1,1441.5,91.9263Z" transform="translate(-8.5938 -15.9521)"/><path class="cls-1" d="M1508.1465,75.625a4.1353,4.1353,0,0,0,1.1543,3.1421,4.6012,4.6012,0,0,0,3.3037,1.1011h2.4707v14.18h-7.52q-6.7149,0-10.42-3.8672t-3.706-10.9034V15.9521h14.7168Z" transform="translate(-8.5938 -15.9521)"/><path class="cls-1" d="M1539.4248,93.9673a44.2422,44.2422,0,0,1-8.8623-2.605,32.5768,32.5768,0,0,1-7.3047-4.1357l9.0772-11.333a35.4871,35.4871,0,0,0,8.4326,3.9746,27.7041,27.7041,0,0,0,8.3789,1.3964,21.9931,21.9931,0,0,0,8.0029-1.1547q2.8463-1.1544,2.8467-3.1958a3.3962,3.3962,0,0,0-1.2354-2.8467,7.574,7.574,0,0,0-3.1689-1.37,51.33,51.33,0,0,0-5.4248-.7251q-.9667-.107-1.9609-.2149t-2.0137-.2148a3.6711,3.6711,0,0,0-.457-.0806,4.2079,4.2079,0,0,0-.4561-.0269,60.207,60.207,0,0,1-9.99-1.9873,12.8043,12.8043,0,0,1-6.3643-4.5385q-2.6059-3.3559-2.6055-9.7486a15.7954,15.7954,0,0,1,10.4737-15.603,32.9131,32.9131,0,0,1,12.3535-2.0679,42.3146,42.3146,0,0,1,8.46.8594A43.6391,43.6391,0,0,1,1565.69,40.82a39.0136,39.0136,0,0,1,7.1435,3.8672l-8.7549,10.6885a35.4321,35.4321,0,0,0-7.6269-3.169,27.9261,27.9261,0,0,0-7.627-1.1279,18.7355,18.7355,0,0,0-6.9287,1.0205q-2.4713,1.021-2.4707,2.8467a2.4126,2.4126,0,0,0,1.3164,2.1753,9.7581,9.7581,0,0,0,3.2754,1.1279q1.9614.35,5.7207.7788.4834.0543.9668.1074t.9668.1075a1.975,1.975,0,0,0,.4834.0537,2.0318,2.0318,0,0,1,.4834.0537,66.9931,66.9931,0,0,1,10.5811,1.9336,13.7569,13.7569,0,0,1,6.956,4.7265q2.8725,3.5449,2.8731,10.42a16.4359,16.4359,0,0,1-10.9571,16.2475,34.4722,34.4722,0,0,1-12.9443,2.1753A52.642,52.642,0,0,1,1539.4248,93.9673Z" transform="translate(-8.5938 -15.9521)"/></g></g></svg>